<svg xmlns="http://www.w3.org/2000/svg" width="900" height="600" viewBox="0 0 900 600" role="img" aria-labelledby="title desc">
<title id="title">Q-table convergence: A to C</title>
<desc id="desc">Upper panel: all legal Q-table values, with start-state actions highlighted, initially and after each episode. Lower panel: maximum absolute Q-table entry change within each episode. All plotted values come from the saved convergence CSV.</desc>
<rect width="900" height="600" fill="white"/>
<g font-family="Arial, sans-serif" fill="#263238">
<text x="90" y="38" font-size="22" font-weight="bold">Q-table convergence: A to C</text>
<text x="90" y="67" font-size="14">All legal Q-values; start-state actions highlighted</text>
<text x="90" y="356" font-size="14">Largest Q-value change across the full table per episode</text>
<line x1="90" y1="295.00" x2="830" y2="295.00" stroke="#e2e8e8"/>
<text x="80" y="299.00" font-size="12" text-anchor="end">-8.8</text>
<line x1="90" y1="245.00" x2="830" y2="245.00" stroke="#e2e8e8"/>
<text x="80" y="249.00" font-size="12" text-anchor="end">20.4</text>
<line x1="90" y1="195.00" x2="830" y2="195.00" stroke="#e2e8e8"/>
<text x="80" y="199.00" font-size="12" text-anchor="end">49.6</text>
<line x1="90" y1="145.00" x2="830" y2="145.00" stroke="#e2e8e8"/>
<text x="80" y="149.00" font-size="12" text-anchor="end">78.8</text>
<line x1="90" y1="95.00" x2="830" y2="95.00" stroke="#e2e8e8"/>
<text x="80" y="99.00" font-size="12" text-anchor="end">108.1</text>
<line x1="90" y1="95" x2="90" y2="295" stroke="#657275"/>
<line x1="90" y1="295" x2="830" y2="295" stroke="#657275"/>
<text x="90.00" y="316" font-size="12" text-anchor="middle">0</text>
<text x="275.00" y="316" font-size="12" text-anchor="middle">2500</text>
<text x="460.00" y="316" font-size="12" text-anchor="middle">5000</text>
<text x="645.00" y="316" font-size="12" text-anchor="middle">7500</text>
<text x="830.00" y="316" font-size="12" text-anchor="middle">10000</text>
<line x1="90" y1="520.00" x2="830" y2="520.00" stroke="#e2e8e8"/>
<text x="80" y="524.00" font-size="12" text-anchor="end">0.0</text>
<line x1="90" y1="485.00" x2="830" y2="485.00" stroke="#e2e8e8"/>
<text x="80" y="489.00" font-size="12" text-anchor="end">6.0</text>
<line x1="90" y1="450.00" x2="830" y2="450.00" stroke="#e2e8e8"/>
<text x="80" y="454.00" font-size="12" text-anchor="end">12.0</text>
<line x1="90" y1="415.00" x2="830" y2="415.00" stroke="#e2e8e8"/>
<text x="80" y="419.00" font-size="12" text-anchor="end">18.0</text>
<line x1="90" y1="380.00" x2="830" y2="380.00" stroke="#e2e8e8"/>
<text x="80" y="384.00" font-size="12" text-anchor="end">24.1</text>
<line x1="90" y1="380" x2="90" y2="520" stroke="#657275"/>
<line x1="90" y1="520" x2="830" y2="520" stroke="#657275"/>
<text x="90.00" y="541" font-size="12" text-anchor="middle">0</text>
<text x="275.00" y="541" font-size="12" text-anchor="middle">2500</text>
<text x="460.00" y="541" font-size="12" text-anchor="middle">5000</text>
<text x="645.00" y="541" font-size="12" text-anchor="middle">7500</text>
<text x="830.00" y="541" font-size="12" text-anchor="middle">10000</text>
<polyline points="90.00,279.95 90.07,245.71 92.52,131.76 94.96,114.81 97.40,110.06 99.84,109.44 102.28,108.90 104.73,108.83 107.17,108.80 109.61,108.79 112.05,108.79 114.49,108.79 116.94,108.79 119.38,108.79 121.82,108.79 124.26,108.79 126.70,108.79 129.15,108.79 131.59,108.79 134.03,108.79 136.47,108.79 138.91,108.79 141.36,108.79 143.80,108.79 146.24,108.79 148.68,108.79 151.12,108.79 153.57,108.79 156.01,108.79 158.45,108.79 160.89,108.79 163.33,108.79 165.78,108.79 168.22,108.79 170.66,108.79 173.10,108.79 175.54,108.79 177.99,108.79 180.43,108.79 182.87,108.79 185.31,108.79 187.75,108.79 190.20,108.79 192.64,108.79 195.08,108.79 197.52,108.79 199.96,108.79 202.41,108.79 204.85,108.79 207.29,108.79 209.73,108.79 212.17,108.79 214.62,108.79 217.06,108.79 219.50,108.79 221.94,108.79 224.38,108.79 226.83,108.79 229.27,108.79 231.71,108.79 234.15,108.79 236.59,108.79 239.04,108.79 241.48,108.79 243.92,108.79 246.36,108.79 248.80,108.79 251.25,108.79 253.69,108.79 256.13,108.79 258.57,108.79 261.01,108.79 263.46,108.79 265.90,108.79 268.34,108.79 270.78,108.79 273.22,108.79 275.67,108.79 278.11,108.79 280.55,108.79 282.99,108.79 285.43,108.79 287.88,108.79 290.32,108.79 292.76,108.79 295.20,108.79 297.64,108.79 300.09,108.79 302.53,108.79 304.97,108.79 307.41,108.79 309.85,108.79 312.30,108.79 314.74,108.79 317.18,108.79 319.62,108.79 322.06,108.79 324.51,108.79 326.95,108.79 329.39,108.79 331.83,108.79 334.27,108.79 336.72,108.79 339.16,108.79 341.60,108.79 344.04,108.79 346.48,108.79 348.93,108.79 351.37,108.79 353.81,108.79 356.25,108.79 358.69,108.79 361.14,108.79 363.58,108.79 366.02,108.79 368.46,108.79 370.90,108.79 373.35,108.79 375.79,108.79 378.23,108.79 380.67,108.79 383.11,108.79 385.56,108.79 388.00,108.79 390.44,108.79 392.88,108.79 395.32,108.79 397.77,108.79 400.21,108.79 402.65,108.79 405.09,108.79 407.53,108.79 409.98,108.79 412.42,108.79 414.86,108.79 417.30,108.79 419.74,108.79 422.19,108.79 424.63,108.79 427.07,108.79 429.51,108.79 431.95,108.79 434.40,108.79 436.84,108.79 439.28,108.79 441.72,108.79 444.16,108.79 446.61,108.79 449.05,108.79 451.49,108.79 453.93,108.79 456.37,108.79 458.82,108.79 461.26,108.79 463.70,108.79 466.14,108.79 468.58,108.79 471.03,108.79 473.47,108.79 475.91,108.79 478.35,108.79 480.79,108.79 483.24,108.79 485.68,108.79 488.12,108.79 490.56,108.79 493.00,108.79 495.45,108.79 497.89,108.79 500.33,108.79 502.77,108.79 505.21,108.79 507.66,108.79 510.10,108.79 512.54,108.79 514.98,108.79 517.42,108.79 519.87,108.79 522.31,108.79 524.75,108.79 527.19,108.79 529.63,108.79 532.08,108.79 534.52,108.79 536.96,108.79 539.40,108.79 541.84,108.79 544.29,108.79 546.73,108.79 549.17,108.79 551.61,108.79 554.05,108.79 556.50,108.79 558.94,108.79 561.38,108.79 563.82,108.79 566.26,108.79 568.71,108.79 571.15,108.79 573.59,108.79 576.03,108.79 578.47,108.79 580.92,108.79 583.36,108.79 585.80,108.79 588.24,108.79 590.68,108.79 593.13,108.79 595.57,108.79 598.01,108.79 600.45,108.79 602.89,108.79 605.34,108.79 607.78,108.79 610.22,108.79 612.66,108.79 615.10,108.79 617.55,108.79 619.99,108.79 622.43,108.79 624.87,108.79 627.31,108.79 629.76,108.79 632.20,108.79 634.64,108.79 637.08,108.79 639.52,108.79 641.97,108.79 644.41,108.79 646.85,108.79 649.29,108.79 651.73,108.79 654.18,108.79 656.62,108.79 659.06,108.79 661.50,108.79 663.94,108.79 666.39,108.79 668.83,108.79 671.27,108.79 673.71,108.79 676.15,108.79 678.60,108.79 681.04,108.79 683.48,108.79 685.92,108.79 688.36,108.79 690.81,108.79 693.25,108.79 695.69,108.79 698.13,108.79 700.57,108.79 703.02,108.79 705.46,108.79 707.90,108.79 710.34,108.79 712.78,108.79 715.23,108.79 717.67,108.79 720.11,108.79 722.55,108.79 724.99,108.79 727.44,108.79 729.88,108.79 732.32,108.79 734.76,108.79 737.20,108.79 739.65,108.79 742.09,108.79 744.53,108.79 746.97,108.79 749.41,108.79 751.86,108.79 754.30,108.79 756.74,108.79 759.18,108.79 761.62,108.79 764.07,108.79 766.51,108.79 768.95,108.79 771.39,108.79 773.83,108.79 776.28,108.79 778.72,108.79 781.16,108.79 783.60,108.79 786.04,108.79 788.49,108.79 790.93,108.79 793.37,108.79 795.81,108.79 798.25,108.79 800.70,108.79 803.14,108.79 805.58,108.79 808.02,108.79 810.46,108.79 812.91,108.79 815.35,108.79 817.79,108.79 820.23,108.79 822.67,108.79 825.12,108.79 827.56,108.79 830.00,108.79" fill="none" stroke="#67767a" stroke-opacity="0.28" stroke-width="1.3"><title>Q(B, C)</title></polyline>
<polyline points="90.00,279.95 90.07,279.95 92.52,279.95 94.96,279.95 97.40,249.48 99.84,225.11 102.28,167.55 104.73,153.18 107.17,143.98 109.61,143.98 112.05,140.70 114.49,138.09 116.94,132.98 119.38,131.91 121.82,131.91 124.26,131.05 126.70,130.36 129.15,129.82 131.59,129.82 134.03,129.38 136.47,128.74 138.91,128.34 141.36,128.34 143.80,128.20 146.24,128.08 148.68,127.86 151.12,127.81 153.57,127.77 156.01,127.74 158.45,127.74 160.89,127.70 163.33,127.68 165.78,127.68 168.22,127.67 170.66,127.67 173.10,127.66 175.54,127.65 177.99,127.64 180.43,127.63 182.87,127.63 185.31,127.63 187.75,127.62 190.20,127.62 192.64,127.62 195.08,127.62 197.52,127.62 199.96,127.62 202.41,127.62 204.85,127.62 207.29,127.62 209.73,127.62 212.17,127.62 214.62,127.62 217.06,127.62 219.50,127.62 221.94,127.62 224.38,127.62 226.83,127.62 229.27,127.62 231.71,127.62 234.15,127.62 236.59,127.62 239.04,127.62 241.48,127.62 243.92,127.62 246.36,127.62 248.80,127.62 251.25,127.62 253.69,127.62 256.13,127.62 258.57,127.62 261.01,127.62 263.46,127.62 265.90,127.62 268.34,127.62 270.78,127.62 273.22,127.62 275.67,127.62 278.11,127.62 280.55,127.62 282.99,127.62 285.43,127.62 287.88,127.62 290.32,127.62 292.76,127.62 295.20,127.62 297.64,127.62 300.09,127.62 302.53,127.62 304.97,127.62 307.41,127.62 309.85,127.62 312.30,127.62 314.74,127.62 317.18,127.62 319.62,127.62 322.06,127.62 324.51,127.62 326.95,127.62 329.39,127.62 331.83,127.62 334.27,127.62 336.72,127.62 339.16,127.62 341.60,127.62 344.04,127.62 346.48,127.62 348.93,127.62 351.37,127.62 353.81,127.62 356.25,127.62 358.69,127.62 361.14,127.62 363.58,127.62 366.02,127.62 368.46,127.62 370.90,127.62 373.35,127.62 375.79,127.62 378.23,127.62 380.67,127.62 383.11,127.62 385.56,127.62 388.00,127.62 390.44,127.62 392.88,127.62 395.32,127.62 397.77,127.62 400.21,127.62 402.65,127.62 405.09,127.62 407.53,127.62 409.98,127.62 412.42,127.62 414.86,127.62 417.30,127.62 419.74,127.62 422.19,127.62 424.63,127.62 427.07,127.62 429.51,127.62 431.95,127.62 434.40,127.62 436.84,127.62 439.28,127.62 441.72,127.62 444.16,127.62 446.61,127.62 449.05,127.62 451.49,127.62 453.93,127.62 456.37,127.62 458.82,127.62 461.26,127.62 463.70,127.62 466.14,127.62 468.58,127.62 471.03,127.62 473.47,127.62 475.91,127.62 478.35,127.62 480.79,127.62 483.24,127.62 485.68,127.62 488.12,127.62 490.56,127.62 493.00,127.62 495.45,127.62 497.89,127.62 500.33,127.62 502.77,127.62 505.21,127.62 507.66,127.62 510.10,127.62 512.54,127.62 514.98,127.62 517.42,127.62 519.87,127.62 522.31,127.62 524.75,127.62 527.19,127.62 529.63,127.62 532.08,127.62 534.52,127.62 536.96,127.62 539.40,127.62 541.84,127.62 544.29,127.62 546.73,127.62 549.17,127.62 551.61,127.62 554.05,127.62 556.50,127.62 558.94,127.62 561.38,127.62 563.82,127.62 566.26,127.62 568.71,127.62 571.15,127.62 573.59,127.62 576.03,127.62 578.47,127.62 580.92,127.62 583.36,127.62 585.80,127.62 588.24,127.62 590.68,127.62 593.13,127.62 595.57,127.62 598.01,127.62 600.45,127.62 602.89,127.62 605.34,127.62 607.78,127.62 610.22,127.62 612.66,127.62 615.10,127.62 617.55,127.62 619.99,127.62 622.43,127.62 624.87,127.62 627.31,127.62 629.76,127.62 632.20,127.62 634.64,127.62 637.08,127.62 639.52,127.62 641.97,127.62 644.41,127.62 646.85,127.62 649.29,127.62 651.73,127.62 654.18,127.62 656.62,127.62 659.06,127.62 661.50,127.62 663.94,127.62 666.39,127.62 668.83,127.62 671.27,127.62 673.71,127.62 676.15,127.62 678.60,127.62 681.04,127.62 683.48,127.62 685.92,127.62 688.36,127.62 690.81,127.62 693.25,127.62 695.69,127.62 698.13,127.62 700.57,127.62 703.02,127.62 705.46,127.62 707.90,127.62 710.34,127.62 712.78,127.62 715.23,127.62 717.67,127.62 720.11,127.62 722.55,127.62 724.99,127.62 727.44,127.62 729.88,127.62 732.32,127.62 734.76,127.62 737.20,127.62 739.65,127.62 742.09,127.62 744.53,127.62 746.97,127.62 749.41,127.62 751.86,127.62 754.30,127.62 756.74,127.62 759.18,127.62 761.62,127.62 764.07,127.62 766.51,127.62 768.95,127.62 771.39,127.62 773.83,127.62 776.28,127.62 778.72,127.62 781.16,127.62 783.60,127.62 786.04,127.62 788.49,127.62 790.93,127.62 793.37,127.62 795.81,127.62 798.25,127.62 800.70,127.62 803.14,127.62 805.58,127.62 808.02,127.62 810.46,127.62 812.91,127.62 815.35,127.62 817.79,127.62 820.23,127.62 822.67,127.62 825.12,127.62 827.56,127.62 830.00,127.62" fill="none" stroke="#67767a" stroke-opacity="0.28" stroke-width="1.3"><title>Q(B, D)</title></polyline>
<polyline points="90.00,279.95 90.07,279.95 92.52,278.35 94.96,250.40 97.40,250.40 99.84,250.40 102.28,229.62 104.73,179.74 107.17,162.61 109.61,162.61 112.05,162.61 114.49,162.61 116.94,156.12 119.38,151.96 121.82,148.35 124.26,147.59 126.70,146.99 129.15,146.50 131.59,146.11 134.03,145.80 136.47,145.80 138.91,145.80 141.36,145.80 143.80,145.36 146.24,145.36 148.68,145.20 151.12,145.20 153.57,145.20 156.01,144.89 158.45,144.82 160.89,144.70 163.33,144.63 165.78,144.62 168.22,144.61 170.66,144.60 173.10,144.59 175.54,144.58 177.99,144.58 180.43,144.58 182.87,144.57 185.31,144.57 187.75,144.57 190.20,144.57 192.64,144.57 195.08,144.57 197.52,144.57 199.96,144.57 202.41,144.57 204.85,144.56 207.29,144.56 209.73,144.56 212.17,144.56 214.62,144.56 217.06,144.56 219.50,144.56 221.94,144.56 224.38,144.56 226.83,144.56 229.27,144.56 231.71,144.56 234.15,144.56 236.59,144.56 239.04,144.56 241.48,144.56 243.92,144.56 246.36,144.56 248.80,144.56 251.25,144.56 253.69,144.56 256.13,144.56 258.57,144.56 261.01,144.56 263.46,144.56 265.90,144.56 268.34,144.56 270.78,144.56 273.22,144.56 275.67,144.56 278.11,144.56 280.55,144.56 282.99,144.56 285.43,144.56 287.88,144.56 290.32,144.56 292.76,144.56 295.20,144.56 297.64,144.56 300.09,144.56 302.53,144.56 304.97,144.56 307.41,144.56 309.85,144.56 312.30,144.56 314.74,144.56 317.18,144.56 319.62,144.56 322.06,144.56 324.51,144.56 326.95,144.56 329.39,144.56 331.83,144.56 334.27,144.56 336.72,144.56 339.16,144.56 341.60,144.56 344.04,144.56 346.48,144.56 348.93,144.56 351.37,144.56 353.81,144.56 356.25,144.56 358.69,144.56 361.14,144.56 363.58,144.56 366.02,144.56 368.46,144.56 370.90,144.56 373.35,144.56 375.79,144.56 378.23,144.56 380.67,144.56 383.11,144.56 385.56,144.56 388.00,144.56 390.44,144.56 392.88,144.56 395.32,144.56 397.77,144.56 400.21,144.56 402.65,144.56 405.09,144.56 407.53,144.56 409.98,144.56 412.42,144.56 414.86,144.56 417.30,144.56 419.74,144.56 422.19,144.56 424.63,144.56 427.07,144.56 429.51,144.56 431.95,144.56 434.40,144.56 436.84,144.56 439.28,144.56 441.72,144.56 444.16,144.56 446.61,144.56 449.05,144.56 451.49,144.56 453.93,144.56 456.37,144.56 458.82,144.56 461.26,144.56 463.70,144.56 466.14,144.56 468.58,144.56 471.03,144.56 473.47,144.56 475.91,144.56 478.35,144.56 480.79,144.56 483.24,144.56 485.68,144.56 488.12,144.56 490.56,144.56 493.00,144.56 495.45,144.56 497.89,144.56 500.33,144.56 502.77,144.56 505.21,144.56 507.66,144.56 510.10,144.56 512.54,144.56 514.98,144.56 517.42,144.56 519.87,144.56 522.31,144.56 524.75,144.56 527.19,144.56 529.63,144.56 532.08,144.56 534.52,144.56 536.96,144.56 539.40,144.56 541.84,144.56 544.29,144.56 546.73,144.56 549.17,144.56 551.61,144.56 554.05,144.56 556.50,144.56 558.94,144.56 561.38,144.56 563.82,144.56 566.26,144.56 568.71,144.56 571.15,144.56 573.59,144.56 576.03,144.56 578.47,144.56 580.92,144.56 583.36,144.56 585.80,144.56 588.24,144.56 590.68,144.56 593.13,144.56 595.57,144.56 598.01,144.56 600.45,144.56 602.89,144.56 605.34,144.56 607.78,144.56 610.22,144.56 612.66,144.56 615.10,144.56 617.55,144.56 619.99,144.56 622.43,144.56 624.87,144.56 627.31,144.56 629.76,144.56 632.20,144.56 634.64,144.56 637.08,144.56 639.52,144.56 641.97,144.56 644.41,144.56 646.85,144.56 649.29,144.56 651.73,144.56 654.18,144.56 656.62,144.56 659.06,144.56 661.50,144.56 663.94,144.56 666.39,144.56 668.83,144.56 671.27,144.56 673.71,144.56 676.15,144.56 678.60,144.56 681.04,144.56 683.48,144.56 685.92,144.56 688.36,144.56 690.81,144.56 693.25,144.56 695.69,144.56 698.13,144.56 700.57,144.56 703.02,144.56 705.46,144.56 707.90,144.56 710.34,144.56 712.78,144.56 715.23,144.56 717.67,144.56 720.11,144.56 722.55,144.56 724.99,144.56 727.44,144.56 729.88,144.56 732.32,144.56 734.76,144.56 737.20,144.56 739.65,144.56 742.09,144.56 744.53,144.56 746.97,144.56 749.41,144.56 751.86,144.56 754.30,144.56 756.74,144.56 759.18,144.56 761.62,144.56 764.07,144.56 766.51,144.56 768.95,144.56 771.39,144.56 773.83,144.56 776.28,144.56 778.72,144.56 781.16,144.56 783.60,144.56 786.04,144.56 788.49,144.56 790.93,144.56 793.37,144.56 795.81,144.56 798.25,144.56 800.70,144.56 803.14,144.56 805.58,144.56 808.02,144.56 810.46,144.56 812.91,144.56 815.35,144.56 817.79,144.56 820.23,144.56 822.67,144.56 825.12,144.56 827.56,144.56 830.00,144.56" fill="none" stroke="#67767a" stroke-opacity="0.28" stroke-width="1.3"><title>Q(B, F)</title></polyline>
<polyline points="90.00,279.95 90.07,280.29 92.52,217.14 94.96,190.87 97.40,168.94 99.84,160.82 102.28,136.49 104.73,132.19 107.17,129.50 109.61,128.58 112.05,128.11 114.49,127.94 116.94,127.67 119.38,127.64 121.82,127.63 124.26,127.63 126.70,127.62 129.15,127.62 131.59,127.62 134.03,127.62 136.47,127.62 138.91,127.62 141.36,127.62 143.80,127.62 146.24,127.62 148.68,127.62 151.12,127.62 153.57,127.62 156.01,127.62 158.45,127.62 160.89,127.62 163.33,127.62 165.78,127.62 168.22,127.62 170.66,127.62 173.10,127.62 175.54,127.62 177.99,127.62 180.43,127.62 182.87,127.62 185.31,127.62 187.75,127.62 190.20,127.62 192.64,127.62 195.08,127.62 197.52,127.62 199.96,127.62 202.41,127.62 204.85,127.62 207.29,127.62 209.73,127.62 212.17,127.62 214.62,127.62 217.06,127.62 219.50,127.62 221.94,127.62 224.38,127.62 226.83,127.62 229.27,127.62 231.71,127.62 234.15,127.62 236.59,127.62 239.04,127.62 241.48,127.62 243.92,127.62 246.36,127.62 248.80,127.62 251.25,127.62 253.69,127.62 256.13,127.62 258.57,127.62 261.01,127.62 263.46,127.62 265.90,127.62 268.34,127.62 270.78,127.62 273.22,127.62 275.67,127.62 278.11,127.62 280.55,127.62 282.99,127.62 285.43,127.62 287.88,127.62 290.32,127.62 292.76,127.62 295.20,127.62 297.64,127.62 300.09,127.62 302.53,127.62 304.97,127.62 307.41,127.62 309.85,127.62 312.30,127.62 314.74,127.62 317.18,127.62 319.62,127.62 322.06,127.62 324.51,127.62 326.95,127.62 329.39,127.62 331.83,127.62 334.27,127.62 336.72,127.62 339.16,127.62 341.60,127.62 344.04,127.62 346.48,127.62 348.93,127.62 351.37,127.62 353.81,127.62 356.25,127.62 358.69,127.62 361.14,127.62 363.58,127.62 366.02,127.62 368.46,127.62 370.90,127.62 373.35,127.62 375.79,127.62 378.23,127.62 380.67,127.62 383.11,127.62 385.56,127.62 388.00,127.62 390.44,127.62 392.88,127.62 395.32,127.62 397.77,127.62 400.21,127.62 402.65,127.62 405.09,127.62 407.53,127.62 409.98,127.62 412.42,127.62 414.86,127.62 417.30,127.62 419.74,127.62 422.19,127.62 424.63,127.62 427.07,127.62 429.51,127.62 431.95,127.62 434.40,127.62 436.84,127.62 439.28,127.62 441.72,127.62 444.16,127.62 446.61,127.62 449.05,127.62 451.49,127.62 453.93,127.62 456.37,127.62 458.82,127.62 461.26,127.62 463.70,127.62 466.14,127.62 468.58,127.62 471.03,127.62 473.47,127.62 475.91,127.62 478.35,127.62 480.79,127.62 483.24,127.62 485.68,127.62 488.12,127.62 490.56,127.62 493.00,127.62 495.45,127.62 497.89,127.62 500.33,127.62 502.77,127.62 505.21,127.62 507.66,127.62 510.10,127.62 512.54,127.62 514.98,127.62 517.42,127.62 519.87,127.62 522.31,127.62 524.75,127.62 527.19,127.62 529.63,127.62 532.08,127.62 534.52,127.62 536.96,127.62 539.40,127.62 541.84,127.62 544.29,127.62 546.73,127.62 549.17,127.62 551.61,127.62 554.05,127.62 556.50,127.62 558.94,127.62 561.38,127.62 563.82,127.62 566.26,127.62 568.71,127.62 571.15,127.62 573.59,127.62 576.03,127.62 578.47,127.62 580.92,127.62 583.36,127.62 585.80,127.62 588.24,127.62 590.68,127.62 593.13,127.62 595.57,127.62 598.01,127.62 600.45,127.62 602.89,127.62 605.34,127.62 607.78,127.62 610.22,127.62 612.66,127.62 615.10,127.62 617.55,127.62 619.99,127.62 622.43,127.62 624.87,127.62 627.31,127.62 629.76,127.62 632.20,127.62 634.64,127.62 637.08,127.62 639.52,127.62 641.97,127.62 644.41,127.62 646.85,127.62 649.29,127.62 651.73,127.62 654.18,127.62 656.62,127.62 659.06,127.62 661.50,127.62 663.94,127.62 666.39,127.62 668.83,127.62 671.27,127.62 673.71,127.62 676.15,127.62 678.60,127.62 681.04,127.62 683.48,127.62 685.92,127.62 688.36,127.62 690.81,127.62 693.25,127.62 695.69,127.62 698.13,127.62 700.57,127.62 703.02,127.62 705.46,127.62 707.90,127.62 710.34,127.62 712.78,127.62 715.23,127.62 717.67,127.62 720.11,127.62 722.55,127.62 724.99,127.62 727.44,127.62 729.88,127.62 732.32,127.62 734.76,127.62 737.20,127.62 739.65,127.62 742.09,127.62 744.53,127.62 746.97,127.62 749.41,127.62 751.86,127.62 754.30,127.62 756.74,127.62 759.18,127.62 761.62,127.62 764.07,127.62 766.51,127.62 768.95,127.62 771.39,127.62 773.83,127.62 776.28,127.62 778.72,127.62 781.16,127.62 783.60,127.62 786.04,127.62 788.49,127.62 790.93,127.62 793.37,127.62 795.81,127.62 798.25,127.62 800.70,127.62 803.14,127.62 805.58,127.62 808.02,127.62 810.46,127.62 812.91,127.62 815.35,127.62 817.79,127.62 820.23,127.62 822.67,127.62 825.12,127.62 827.56,127.62 830.00,127.62" fill="none" stroke="#67767a" stroke-opacity="0.28" stroke-width="1.3"><title>Q(D, B)</title></polyline>
<polyline points="90.00,279.95 90.07,279.95 92.52,109.44 94.96,108.79 97.40,108.79 99.84,108.79 102.28,108.79 104.73,108.79 107.17,108.79 109.61,108.79 112.05,108.79 114.49,108.79 116.94,108.79 119.38,108.79 121.82,108.79 124.26,108.79 126.70,108.79 129.15,108.79 131.59,108.79 134.03,108.79 136.47,108.79 138.91,108.79 141.36,108.79 143.80,108.79 146.24,108.79 148.68,108.79 151.12,108.79 153.57,108.79 156.01,108.79 158.45,108.79 160.89,108.79 163.33,108.79 165.78,108.79 168.22,108.79 170.66,108.79 173.10,108.79 175.54,108.79 177.99,108.79 180.43,108.79 182.87,108.79 185.31,108.79 187.75,108.79 190.20,108.79 192.64,108.79 195.08,108.79 197.52,108.79 199.96,108.79 202.41,108.79 204.85,108.79 207.29,108.79 209.73,108.79 212.17,108.79 214.62,108.79 217.06,108.79 219.50,108.79 221.94,108.79 224.38,108.79 226.83,108.79 229.27,108.79 231.71,108.79 234.15,108.79 236.59,108.79 239.04,108.79 241.48,108.79 243.92,108.79 246.36,108.79 248.80,108.79 251.25,108.79 253.69,108.79 256.13,108.79 258.57,108.79 261.01,108.79 263.46,108.79 265.90,108.79 268.34,108.79 270.78,108.79 273.22,108.79 275.67,108.79 278.11,108.79 280.55,108.79 282.99,108.79 285.43,108.79 287.88,108.79 290.32,108.79 292.76,108.79 295.20,108.79 297.64,108.79 300.09,108.79 302.53,108.79 304.97,108.79 307.41,108.79 309.85,108.79 312.30,108.79 314.74,108.79 317.18,108.79 319.62,108.79 322.06,108.79 324.51,108.79 326.95,108.79 329.39,108.79 331.83,108.79 334.27,108.79 336.72,108.79 339.16,108.79 341.60,108.79 344.04,108.79 346.48,108.79 348.93,108.79 351.37,108.79 353.81,108.79 356.25,108.79 358.69,108.79 361.14,108.79 363.58,108.79 366.02,108.79 368.46,108.79 370.90,108.79 373.35,108.79 375.79,108.79 378.23,108.79 380.67,108.79 383.11,108.79 385.56,108.79 388.00,108.79 390.44,108.79 392.88,108.79 395.32,108.79 397.77,108.79 400.21,108.79 402.65,108.79 405.09,108.79 407.53,108.79 409.98,108.79 412.42,108.79 414.86,108.79 417.30,108.79 419.74,108.79 422.19,108.79 424.63,108.79 427.07,108.79 429.51,108.79 431.95,108.79 434.40,108.79 436.84,108.79 439.28,108.79 441.72,108.79 444.16,108.79 446.61,108.79 449.05,108.79 451.49,108.79 453.93,108.79 456.37,108.79 458.82,108.79 461.26,108.79 463.70,108.79 466.14,108.79 468.58,108.79 471.03,108.79 473.47,108.79 475.91,108.79 478.35,108.79 480.79,108.79 483.24,108.79 485.68,108.79 488.12,108.79 490.56,108.79 493.00,108.79 495.45,108.79 497.89,108.79 500.33,108.79 502.77,108.79 505.21,108.79 507.66,108.79 510.10,108.79 512.54,108.79 514.98,108.79 517.42,108.79 519.87,108.79 522.31,108.79 524.75,108.79 527.19,108.79 529.63,108.79 532.08,108.79 534.52,108.79 536.96,108.79 539.40,108.79 541.84,108.79 544.29,108.79 546.73,108.79 549.17,108.79 551.61,108.79 554.05,108.79 556.50,108.79 558.94,108.79 561.38,108.79 563.82,108.79 566.26,108.79 568.71,108.79 571.15,108.79 573.59,108.79 576.03,108.79 578.47,108.79 580.92,108.79 583.36,108.79 585.80,108.79 588.24,108.79 590.68,108.79 593.13,108.79 595.57,108.79 598.01,108.79 600.45,108.79 602.89,108.79 605.34,108.79 607.78,108.79 610.22,108.79 612.66,108.79 615.10,108.79 617.55,108.79 619.99,108.79 622.43,108.79 624.87,108.79 627.31,108.79 629.76,108.79 632.20,108.79 634.64,108.79 637.08,108.79 639.52,108.79 641.97,108.79 644.41,108.79 646.85,108.79 649.29,108.79 651.73,108.79 654.18,108.79 656.62,108.79 659.06,108.79 661.50,108.79 663.94,108.79 666.39,108.79 668.83,108.79 671.27,108.79 673.71,108.79 676.15,108.79 678.60,108.79 681.04,108.79 683.48,108.79 685.92,108.79 688.36,108.79 690.81,108.79 693.25,108.79 695.69,108.79 698.13,108.79 700.57,108.79 703.02,108.79 705.46,108.79 707.90,108.79 710.34,108.79 712.78,108.79 715.23,108.79 717.67,108.79 720.11,108.79 722.55,108.79 724.99,108.79 727.44,108.79 729.88,108.79 732.32,108.79 734.76,108.79 737.20,108.79 739.65,108.79 742.09,108.79 744.53,108.79 746.97,108.79 749.41,108.79 751.86,108.79 754.30,108.79 756.74,108.79 759.18,108.79 761.62,108.79 764.07,108.79 766.51,108.79 768.95,108.79 771.39,108.79 773.83,108.79 776.28,108.79 778.72,108.79 781.16,108.79 783.60,108.79 786.04,108.79 788.49,108.79 790.93,108.79 793.37,108.79 795.81,108.79 798.25,108.79 800.70,108.79 803.14,108.79 805.58,108.79 808.02,108.79 810.46,108.79 812.91,108.79 815.35,108.79 817.79,108.79 820.23,108.79 822.67,108.79 825.12,108.79 827.56,108.79 830.00,108.79" fill="none" stroke="#67767a" stroke-opacity="0.28" stroke-width="1.3"><title>Q(D, C)</title></polyline>
<polyline points="90.00,279.95 90.07,279.95 92.52,197.73 94.96,162.09 97.40,153.54 99.84,148.24 102.28,145.53 104.73,144.88 107.17,144.67 109.61,144.58 112.05,144.57 114.49,144.57 116.94,144.56 119.38,144.56 121.82,144.56 124.26,144.56 126.70,144.56 129.15,144.56 131.59,144.56 134.03,144.56 136.47,144.56 138.91,144.56 141.36,144.56 143.80,144.56 146.24,144.56 148.68,144.56 151.12,144.56 153.57,144.56 156.01,144.56 158.45,144.56 160.89,144.56 163.33,144.56 165.78,144.56 168.22,144.56 170.66,144.56 173.10,144.56 175.54,144.56 177.99,144.56 180.43,144.56 182.87,144.56 185.31,144.56 187.75,144.56 190.20,144.56 192.64,144.56 195.08,144.56 197.52,144.56 199.96,144.56 202.41,144.56 204.85,144.56 207.29,144.56 209.73,144.56 212.17,144.56 214.62,144.56 217.06,144.56 219.50,144.56 221.94,144.56 224.38,144.56 226.83,144.56 229.27,144.56 231.71,144.56 234.15,144.56 236.59,144.56 239.04,144.56 241.48,144.56 243.92,144.56 246.36,144.56 248.80,144.56 251.25,144.56 253.69,144.56 256.13,144.56 258.57,144.56 261.01,144.56 263.46,144.56 265.90,144.56 268.34,144.56 270.78,144.56 273.22,144.56 275.67,144.56 278.11,144.56 280.55,144.56 282.99,144.56 285.43,144.56 287.88,144.56 290.32,144.56 292.76,144.56 295.20,144.56 297.64,144.56 300.09,144.56 302.53,144.56 304.97,144.56 307.41,144.56 309.85,144.56 312.30,144.56 314.74,144.56 317.18,144.56 319.62,144.56 322.06,144.56 324.51,144.56 326.95,144.56 329.39,144.56 331.83,144.56 334.27,144.56 336.72,144.56 339.16,144.56 341.60,144.56 344.04,144.56 346.48,144.56 348.93,144.56 351.37,144.56 353.81,144.56 356.25,144.56 358.69,144.56 361.14,144.56 363.58,144.56 366.02,144.56 368.46,144.56 370.90,144.56 373.35,144.56 375.79,144.56 378.23,144.56 380.67,144.56 383.11,144.56 385.56,144.56 388.00,144.56 390.44,144.56 392.88,144.56 395.32,144.56 397.77,144.56 400.21,144.56 402.65,144.56 405.09,144.56 407.53,144.56 409.98,144.56 412.42,144.56 414.86,144.56 417.30,144.56 419.74,144.56 422.19,144.56 424.63,144.56 427.07,144.56 429.51,144.56 431.95,144.56 434.40,144.56 436.84,144.56 439.28,144.56 441.72,144.56 444.16,144.56 446.61,144.56 449.05,144.56 451.49,144.56 453.93,144.56 456.37,144.56 458.82,144.56 461.26,144.56 463.70,144.56 466.14,144.56 468.58,144.56 471.03,144.56 473.47,144.56 475.91,144.56 478.35,144.56 480.79,144.56 483.24,144.56 485.68,144.56 488.12,144.56 490.56,144.56 493.00,144.56 495.45,144.56 497.89,144.56 500.33,144.56 502.77,144.56 505.21,144.56 507.66,144.56 510.10,144.56 512.54,144.56 514.98,144.56 517.42,144.56 519.87,144.56 522.31,144.56 524.75,144.56 527.19,144.56 529.63,144.56 532.08,144.56 534.52,144.56 536.96,144.56 539.40,144.56 541.84,144.56 544.29,144.56 546.73,144.56 549.17,144.56 551.61,144.56 554.05,144.56 556.50,144.56 558.94,144.56 561.38,144.56 563.82,144.56 566.26,144.56 568.71,144.56 571.15,144.56 573.59,144.56 576.03,144.56 578.47,144.56 580.92,144.56 583.36,144.56 585.80,144.56 588.24,144.56 590.68,144.56 593.13,144.56 595.57,144.56 598.01,144.56 600.45,144.56 602.89,144.56 605.34,144.56 607.78,144.56 610.22,144.56 612.66,144.56 615.10,144.56 617.55,144.56 619.99,144.56 622.43,144.56 624.87,144.56 627.31,144.56 629.76,144.56 632.20,144.56 634.64,144.56 637.08,144.56 639.52,144.56 641.97,144.56 644.41,144.56 646.85,144.56 649.29,144.56 651.73,144.56 654.18,144.56 656.62,144.56 659.06,144.56 661.50,144.56 663.94,144.56 666.39,144.56 668.83,144.56 671.27,144.56 673.71,144.56 676.15,144.56 678.60,144.56 681.04,144.56 683.48,144.56 685.92,144.56 688.36,144.56 690.81,144.56 693.25,144.56 695.69,144.56 698.13,144.56 700.57,144.56 703.02,144.56 705.46,144.56 707.90,144.56 710.34,144.56 712.78,144.56 715.23,144.56 717.67,144.56 720.11,144.56 722.55,144.56 724.99,144.56 727.44,144.56 729.88,144.56 732.32,144.56 734.76,144.56 737.20,144.56 739.65,144.56 742.09,144.56 744.53,144.56 746.97,144.56 749.41,144.56 751.86,144.56 754.30,144.56 756.74,144.56 759.18,144.56 761.62,144.56 764.07,144.56 766.51,144.56 768.95,144.56 771.39,144.56 773.83,144.56 776.28,144.56 778.72,144.56 781.16,144.56 783.60,144.56 786.04,144.56 788.49,144.56 790.93,144.56 793.37,144.56 795.81,144.56 798.25,144.56 800.70,144.56 803.14,144.56 805.58,144.56 808.02,144.56 810.46,144.56 812.91,144.56 815.35,144.56 817.79,144.56 820.23,144.56 822.67,144.56 825.12,144.56 827.56,144.56 830.00,144.56" fill="none" stroke="#67767a" stroke-opacity="0.28" stroke-width="1.3"><title>Q(D, E)</title></polyline>
<polyline points="90.00,279.95 90.07,280.35 92.52,211.17 94.96,167.01 97.40,161.70 99.84,161.02 102.28,160.21 104.73,159.88 107.17,159.86 109.61,159.82 112.05,159.82 114.49,159.82 116.94,159.81 119.38,159.81 121.82,159.81 124.26,159.81 126.70,159.81 129.15,159.81 131.59,159.81 134.03,159.81 136.47,159.81 138.91,159.81 141.36,159.81 143.80,159.81 146.24,159.81 148.68,159.81 151.12,159.81 153.57,159.81 156.01,159.81 158.45,159.81 160.89,159.81 163.33,159.81 165.78,159.81 168.22,159.81 170.66,159.81 173.10,159.81 175.54,159.81 177.99,159.81 180.43,159.81 182.87,159.81 185.31,159.81 187.75,159.81 190.20,159.81 192.64,159.81 195.08,159.81 197.52,159.81 199.96,159.81 202.41,159.81 204.85,159.81 207.29,159.81 209.73,159.81 212.17,159.81 214.62,159.81 217.06,159.81 219.50,159.81 221.94,159.81 224.38,159.81 226.83,159.81 229.27,159.81 231.71,159.81 234.15,159.81 236.59,159.81 239.04,159.81 241.48,159.81 243.92,159.81 246.36,159.81 248.80,159.81 251.25,159.81 253.69,159.81 256.13,159.81 258.57,159.81 261.01,159.81 263.46,159.81 265.90,159.81 268.34,159.81 270.78,159.81 273.22,159.81 275.67,159.81 278.11,159.81 280.55,159.81 282.99,159.81 285.43,159.81 287.88,159.81 290.32,159.81 292.76,159.81 295.20,159.81 297.64,159.81 300.09,159.81 302.53,159.81 304.97,159.81 307.41,159.81 309.85,159.81 312.30,159.81 314.74,159.81 317.18,159.81 319.62,159.81 322.06,159.81 324.51,159.81 326.95,159.81 329.39,159.81 331.83,159.81 334.27,159.81 336.72,159.81 339.16,159.81 341.60,159.81 344.04,159.81 346.48,159.81 348.93,159.81 351.37,159.81 353.81,159.81 356.25,159.81 358.69,159.81 361.14,159.81 363.58,159.81 366.02,159.81 368.46,159.81 370.90,159.81 373.35,159.81 375.79,159.81 378.23,159.81 380.67,159.81 383.11,159.81 385.56,159.81 388.00,159.81 390.44,159.81 392.88,159.81 395.32,159.81 397.77,159.81 400.21,159.81 402.65,159.81 405.09,159.81 407.53,159.81 409.98,159.81 412.42,159.81 414.86,159.81 417.30,159.81 419.74,159.81 422.19,159.81 424.63,159.81 427.07,159.81 429.51,159.81 431.95,159.81 434.40,159.81 436.84,159.81 439.28,159.81 441.72,159.81 444.16,159.81 446.61,159.81 449.05,159.81 451.49,159.81 453.93,159.81 456.37,159.81 458.82,159.81 461.26,159.81 463.70,159.81 466.14,159.81 468.58,159.81 471.03,159.81 473.47,159.81 475.91,159.81 478.35,159.81 480.79,159.81 483.24,159.81 485.68,159.81 488.12,159.81 490.56,159.81 493.00,159.81 495.45,159.81 497.89,159.81 500.33,159.81 502.77,159.81 505.21,159.81 507.66,159.81 510.10,159.81 512.54,159.81 514.98,159.81 517.42,159.81 519.87,159.81 522.31,159.81 524.75,159.81 527.19,159.81 529.63,159.81 532.08,159.81 534.52,159.81 536.96,159.81 539.40,159.81 541.84,159.81 544.29,159.81 546.73,159.81 549.17,159.81 551.61,159.81 554.05,159.81 556.50,159.81 558.94,159.81 561.38,159.81 563.82,159.81 566.26,159.81 568.71,159.81 571.15,159.81 573.59,159.81 576.03,159.81 578.47,159.81 580.92,159.81 583.36,159.81 585.80,159.81 588.24,159.81 590.68,159.81 593.13,159.81 595.57,159.81 598.01,159.81 600.45,159.81 602.89,159.81 605.34,159.81 607.78,159.81 610.22,159.81 612.66,159.81 615.10,159.81 617.55,159.81 619.99,159.81 622.43,159.81 624.87,159.81 627.31,159.81 629.76,159.81 632.20,159.81 634.64,159.81 637.08,159.81 639.52,159.81 641.97,159.81 644.41,159.81 646.85,159.81 649.29,159.81 651.73,159.81 654.18,159.81 656.62,159.81 659.06,159.81 661.50,159.81 663.94,159.81 666.39,159.81 668.83,159.81 671.27,159.81 673.71,159.81 676.15,159.81 678.60,159.81 681.04,159.81 683.48,159.81 685.92,159.81 688.36,159.81 690.81,159.81 693.25,159.81 695.69,159.81 698.13,159.81 700.57,159.81 703.02,159.81 705.46,159.81 707.90,159.81 710.34,159.81 712.78,159.81 715.23,159.81 717.67,159.81 720.11,159.81 722.55,159.81 724.99,159.81 727.44,159.81 729.88,159.81 732.32,159.81 734.76,159.81 737.20,159.81 739.65,159.81 742.09,159.81 744.53,159.81 746.97,159.81 749.41,159.81 751.86,159.81 754.30,159.81 756.74,159.81 759.18,159.81 761.62,159.81 764.07,159.81 766.51,159.81 768.95,159.81 771.39,159.81 773.83,159.81 776.28,159.81 778.72,159.81 781.16,159.81 783.60,159.81 786.04,159.81 788.49,159.81 790.93,159.81 793.37,159.81 795.81,159.81 798.25,159.81 800.70,159.81 803.14,159.81 805.58,159.81 808.02,159.81 810.46,159.81 812.91,159.81 815.35,159.81 817.79,159.81 820.23,159.81 822.67,159.81 825.12,159.81 827.56,159.81 830.00,159.81" fill="none" stroke="#67767a" stroke-opacity="0.28" stroke-width="1.3"><title>Q(E, A)</title></polyline>
<polyline points="90.00,279.95 90.07,280.29 92.52,129.39 94.96,127.63 97.40,127.62 99.84,127.62 102.28,127.62 104.73,127.62 107.17,127.62 109.61,127.62 112.05,127.62 114.49,127.62 116.94,127.62 119.38,127.62 121.82,127.62 124.26,127.62 126.70,127.62 129.15,127.62 131.59,127.62 134.03,127.62 136.47,127.62 138.91,127.62 141.36,127.62 143.80,127.62 146.24,127.62 148.68,127.62 151.12,127.62 153.57,127.62 156.01,127.62 158.45,127.62 160.89,127.62 163.33,127.62 165.78,127.62 168.22,127.62 170.66,127.62 173.10,127.62 175.54,127.62 177.99,127.62 180.43,127.62 182.87,127.62 185.31,127.62 187.75,127.62 190.20,127.62 192.64,127.62 195.08,127.62 197.52,127.62 199.96,127.62 202.41,127.62 204.85,127.62 207.29,127.62 209.73,127.62 212.17,127.62 214.62,127.62 217.06,127.62 219.50,127.62 221.94,127.62 224.38,127.62 226.83,127.62 229.27,127.62 231.71,127.62 234.15,127.62 236.59,127.62 239.04,127.62 241.48,127.62 243.92,127.62 246.36,127.62 248.80,127.62 251.25,127.62 253.69,127.62 256.13,127.62 258.57,127.62 261.01,127.62 263.46,127.62 265.90,127.62 268.34,127.62 270.78,127.62 273.22,127.62 275.67,127.62 278.11,127.62 280.55,127.62 282.99,127.62 285.43,127.62 287.88,127.62 290.32,127.62 292.76,127.62 295.20,127.62 297.64,127.62 300.09,127.62 302.53,127.62 304.97,127.62 307.41,127.62 309.85,127.62 312.30,127.62 314.74,127.62 317.18,127.62 319.62,127.62 322.06,127.62 324.51,127.62 326.95,127.62 329.39,127.62 331.83,127.62 334.27,127.62 336.72,127.62 339.16,127.62 341.60,127.62 344.04,127.62 346.48,127.62 348.93,127.62 351.37,127.62 353.81,127.62 356.25,127.62 358.69,127.62 361.14,127.62 363.58,127.62 366.02,127.62 368.46,127.62 370.90,127.62 373.35,127.62 375.79,127.62 378.23,127.62 380.67,127.62 383.11,127.62 385.56,127.62 388.00,127.62 390.44,127.62 392.88,127.62 395.32,127.62 397.77,127.62 400.21,127.62 402.65,127.62 405.09,127.62 407.53,127.62 409.98,127.62 412.42,127.62 414.86,127.62 417.30,127.62 419.74,127.62 422.19,127.62 424.63,127.62 427.07,127.62 429.51,127.62 431.95,127.62 434.40,127.62 436.84,127.62 439.28,127.62 441.72,127.62 444.16,127.62 446.61,127.62 449.05,127.62 451.49,127.62 453.93,127.62 456.37,127.62 458.82,127.62 461.26,127.62 463.70,127.62 466.14,127.62 468.58,127.62 471.03,127.62 473.47,127.62 475.91,127.62 478.35,127.62 480.79,127.62 483.24,127.62 485.68,127.62 488.12,127.62 490.56,127.62 493.00,127.62 495.45,127.62 497.89,127.62 500.33,127.62 502.77,127.62 505.21,127.62 507.66,127.62 510.10,127.62 512.54,127.62 514.98,127.62 517.42,127.62 519.87,127.62 522.31,127.62 524.75,127.62 527.19,127.62 529.63,127.62 532.08,127.62 534.52,127.62 536.96,127.62 539.40,127.62 541.84,127.62 544.29,127.62 546.73,127.62 549.17,127.62 551.61,127.62 554.05,127.62 556.50,127.62 558.94,127.62 561.38,127.62 563.82,127.62 566.26,127.62 568.71,127.62 571.15,127.62 573.59,127.62 576.03,127.62 578.47,127.62 580.92,127.62 583.36,127.62 585.80,127.62 588.24,127.62 590.68,127.62 593.13,127.62 595.57,127.62 598.01,127.62 600.45,127.62 602.89,127.62 605.34,127.62 607.78,127.62 610.22,127.62 612.66,127.62 615.10,127.62 617.55,127.62 619.99,127.62 622.43,127.62 624.87,127.62 627.31,127.62 629.76,127.62 632.20,127.62 634.64,127.62 637.08,127.62 639.52,127.62 641.97,127.62 644.41,127.62 646.85,127.62 649.29,127.62 651.73,127.62 654.18,127.62 656.62,127.62 659.06,127.62 661.50,127.62 663.94,127.62 666.39,127.62 668.83,127.62 671.27,127.62 673.71,127.62 676.15,127.62 678.60,127.62 681.04,127.62 683.48,127.62 685.92,127.62 688.36,127.62 690.81,127.62 693.25,127.62 695.69,127.62 698.13,127.62 700.57,127.62 703.02,127.62 705.46,127.62 707.90,127.62 710.34,127.62 712.78,127.62 715.23,127.62 717.67,127.62 720.11,127.62 722.55,127.62 724.99,127.62 727.44,127.62 729.88,127.62 732.32,127.62 734.76,127.62 737.20,127.62 739.65,127.62 742.09,127.62 744.53,127.62 746.97,127.62 749.41,127.62 751.86,127.62 754.30,127.62 756.74,127.62 759.18,127.62 761.62,127.62 764.07,127.62 766.51,127.62 768.95,127.62 771.39,127.62 773.83,127.62 776.28,127.62 778.72,127.62 781.16,127.62 783.60,127.62 786.04,127.62 788.49,127.62 790.93,127.62 793.37,127.62 795.81,127.62 798.25,127.62 800.70,127.62 803.14,127.62 805.58,127.62 808.02,127.62 810.46,127.62 812.91,127.62 815.35,127.62 817.79,127.62 820.23,127.62 822.67,127.62 825.12,127.62 827.56,127.62 830.00,127.62" fill="none" stroke="#67767a" stroke-opacity="0.28" stroke-width="1.3"><title>Q(E, D)</title></polyline>
<polyline points="90.00,279.95 90.07,279.95 92.52,271.35 94.96,223.91 97.40,175.35 99.84,161.37 102.28,151.13 104.73,146.68 107.17,144.88 109.61,144.68 112.05,144.58 114.49,144.57 116.94,144.57 119.38,144.56 121.82,144.56 124.26,144.56 126.70,144.56 129.15,144.56 131.59,144.56 134.03,144.56 136.47,144.56 138.91,144.56 141.36,144.56 143.80,144.56 146.24,144.56 148.68,144.56 151.12,144.56 153.57,144.56 156.01,144.56 158.45,144.56 160.89,144.56 163.33,144.56 165.78,144.56 168.22,144.56 170.66,144.56 173.10,144.56 175.54,144.56 177.99,144.56 180.43,144.56 182.87,144.56 185.31,144.56 187.75,144.56 190.20,144.56 192.64,144.56 195.08,144.56 197.52,144.56 199.96,144.56 202.41,144.56 204.85,144.56 207.29,144.56 209.73,144.56 212.17,144.56 214.62,144.56 217.06,144.56 219.50,144.56 221.94,144.56 224.38,144.56 226.83,144.56 229.27,144.56 231.71,144.56 234.15,144.56 236.59,144.56 239.04,144.56 241.48,144.56 243.92,144.56 246.36,144.56 248.80,144.56 251.25,144.56 253.69,144.56 256.13,144.56 258.57,144.56 261.01,144.56 263.46,144.56 265.90,144.56 268.34,144.56 270.78,144.56 273.22,144.56 275.67,144.56 278.11,144.56 280.55,144.56 282.99,144.56 285.43,144.56 287.88,144.56 290.32,144.56 292.76,144.56 295.20,144.56 297.64,144.56 300.09,144.56 302.53,144.56 304.97,144.56 307.41,144.56 309.85,144.56 312.30,144.56 314.74,144.56 317.18,144.56 319.62,144.56 322.06,144.56 324.51,144.56 326.95,144.56 329.39,144.56 331.83,144.56 334.27,144.56 336.72,144.56 339.16,144.56 341.60,144.56 344.04,144.56 346.48,144.56 348.93,144.56 351.37,144.56 353.81,144.56 356.25,144.56 358.69,144.56 361.14,144.56 363.58,144.56 366.02,144.56 368.46,144.56 370.90,144.56 373.35,144.56 375.79,144.56 378.23,144.56 380.67,144.56 383.11,144.56 385.56,144.56 388.00,144.56 390.44,144.56 392.88,144.56 395.32,144.56 397.77,144.56 400.21,144.56 402.65,144.56 405.09,144.56 407.53,144.56 409.98,144.56 412.42,144.56 414.86,144.56 417.30,144.56 419.74,144.56 422.19,144.56 424.63,144.56 427.07,144.56 429.51,144.56 431.95,144.56 434.40,144.56 436.84,144.56 439.28,144.56 441.72,144.56 444.16,144.56 446.61,144.56 449.05,144.56 451.49,144.56 453.93,144.56 456.37,144.56 458.82,144.56 461.26,144.56 463.70,144.56 466.14,144.56 468.58,144.56 471.03,144.56 473.47,144.56 475.91,144.56 478.35,144.56 480.79,144.56 483.24,144.56 485.68,144.56 488.12,144.56 490.56,144.56 493.00,144.56 495.45,144.56 497.89,144.56 500.33,144.56 502.77,144.56 505.21,144.56 507.66,144.56 510.10,144.56 512.54,144.56 514.98,144.56 517.42,144.56 519.87,144.56 522.31,144.56 524.75,144.56 527.19,144.56 529.63,144.56 532.08,144.56 534.52,144.56 536.96,144.56 539.40,144.56 541.84,144.56 544.29,144.56 546.73,144.56 549.17,144.56 551.61,144.56 554.05,144.56 556.50,144.56 558.94,144.56 561.38,144.56 563.82,144.56 566.26,144.56 568.71,144.56 571.15,144.56 573.59,144.56 576.03,144.56 578.47,144.56 580.92,144.56 583.36,144.56 585.80,144.56 588.24,144.56 590.68,144.56 593.13,144.56 595.57,144.56 598.01,144.56 600.45,144.56 602.89,144.56 605.34,144.56 607.78,144.56 610.22,144.56 612.66,144.56 615.10,144.56 617.55,144.56 619.99,144.56 622.43,144.56 624.87,144.56 627.31,144.56 629.76,144.56 632.20,144.56 634.64,144.56 637.08,144.56 639.52,144.56 641.97,144.56 644.41,144.56 646.85,144.56 649.29,144.56 651.73,144.56 654.18,144.56 656.62,144.56 659.06,144.56 661.50,144.56 663.94,144.56 666.39,144.56 668.83,144.56 671.27,144.56 673.71,144.56 676.15,144.56 678.60,144.56 681.04,144.56 683.48,144.56 685.92,144.56 688.36,144.56 690.81,144.56 693.25,144.56 695.69,144.56 698.13,144.56 700.57,144.56 703.02,144.56 705.46,144.56 707.90,144.56 710.34,144.56 712.78,144.56 715.23,144.56 717.67,144.56 720.11,144.56 722.55,144.56 724.99,144.56 727.44,144.56 729.88,144.56 732.32,144.56 734.76,144.56 737.20,144.56 739.65,144.56 742.09,144.56 744.53,144.56 746.97,144.56 749.41,144.56 751.86,144.56 754.30,144.56 756.74,144.56 759.18,144.56 761.62,144.56 764.07,144.56 766.51,144.56 768.95,144.56 771.39,144.56 773.83,144.56 776.28,144.56 778.72,144.56 781.16,144.56 783.60,144.56 786.04,144.56 788.49,144.56 790.93,144.56 793.37,144.56 795.81,144.56 798.25,144.56 800.70,144.56 803.14,144.56 805.58,144.56 808.02,144.56 810.46,144.56 812.91,144.56 815.35,144.56 817.79,144.56 820.23,144.56 822.67,144.56 825.12,144.56 827.56,144.56 830.00,144.56" fill="none" stroke="#67767a" stroke-opacity="0.28" stroke-width="1.3"><title>Q(E, F)</title></polyline>
<polyline points="90.00,279.95 90.07,279.95 92.52,225.65 94.96,160.36 97.40,138.51 99.84,133.71 102.28,129.03 104.73,127.91 107.17,127.66 109.61,127.63 112.05,127.62 114.49,127.62 116.94,127.62 119.38,127.62 121.82,127.62 124.26,127.62 126.70,127.62 129.15,127.62 131.59,127.62 134.03,127.62 136.47,127.62 138.91,127.62 141.36,127.62 143.80,127.62 146.24,127.62 148.68,127.62 151.12,127.62 153.57,127.62 156.01,127.62 158.45,127.62 160.89,127.62 163.33,127.62 165.78,127.62 168.22,127.62 170.66,127.62 173.10,127.62 175.54,127.62 177.99,127.62 180.43,127.62 182.87,127.62 185.31,127.62 187.75,127.62 190.20,127.62 192.64,127.62 195.08,127.62 197.52,127.62 199.96,127.62 202.41,127.62 204.85,127.62 207.29,127.62 209.73,127.62 212.17,127.62 214.62,127.62 217.06,127.62 219.50,127.62 221.94,127.62 224.38,127.62 226.83,127.62 229.27,127.62 231.71,127.62 234.15,127.62 236.59,127.62 239.04,127.62 241.48,127.62 243.92,127.62 246.36,127.62 248.80,127.62 251.25,127.62 253.69,127.62 256.13,127.62 258.57,127.62 261.01,127.62 263.46,127.62 265.90,127.62 268.34,127.62 270.78,127.62 273.22,127.62 275.67,127.62 278.11,127.62 280.55,127.62 282.99,127.62 285.43,127.62 287.88,127.62 290.32,127.62 292.76,127.62 295.20,127.62 297.64,127.62 300.09,127.62 302.53,127.62 304.97,127.62 307.41,127.62 309.85,127.62 312.30,127.62 314.74,127.62 317.18,127.62 319.62,127.62 322.06,127.62 324.51,127.62 326.95,127.62 329.39,127.62 331.83,127.62 334.27,127.62 336.72,127.62 339.16,127.62 341.60,127.62 344.04,127.62 346.48,127.62 348.93,127.62 351.37,127.62 353.81,127.62 356.25,127.62 358.69,127.62 361.14,127.62 363.58,127.62 366.02,127.62 368.46,127.62 370.90,127.62 373.35,127.62 375.79,127.62 378.23,127.62 380.67,127.62 383.11,127.62 385.56,127.62 388.00,127.62 390.44,127.62 392.88,127.62 395.32,127.62 397.77,127.62 400.21,127.62 402.65,127.62 405.09,127.62 407.53,127.62 409.98,127.62 412.42,127.62 414.86,127.62 417.30,127.62 419.74,127.62 422.19,127.62 424.63,127.62 427.07,127.62 429.51,127.62 431.95,127.62 434.40,127.62 436.84,127.62 439.28,127.62 441.72,127.62 444.16,127.62 446.61,127.62 449.05,127.62 451.49,127.62 453.93,127.62 456.37,127.62 458.82,127.62 461.26,127.62 463.70,127.62 466.14,127.62 468.58,127.62 471.03,127.62 473.47,127.62 475.91,127.62 478.35,127.62 480.79,127.62 483.24,127.62 485.68,127.62 488.12,127.62 490.56,127.62 493.00,127.62 495.45,127.62 497.89,127.62 500.33,127.62 502.77,127.62 505.21,127.62 507.66,127.62 510.10,127.62 512.54,127.62 514.98,127.62 517.42,127.62 519.87,127.62 522.31,127.62 524.75,127.62 527.19,127.62 529.63,127.62 532.08,127.62 534.52,127.62 536.96,127.62 539.40,127.62 541.84,127.62 544.29,127.62 546.73,127.62 549.17,127.62 551.61,127.62 554.05,127.62 556.50,127.62 558.94,127.62 561.38,127.62 563.82,127.62 566.26,127.62 568.71,127.62 571.15,127.62 573.59,127.62 576.03,127.62 578.47,127.62 580.92,127.62 583.36,127.62 585.80,127.62 588.24,127.62 590.68,127.62 593.13,127.62 595.57,127.62 598.01,127.62 600.45,127.62 602.89,127.62 605.34,127.62 607.78,127.62 610.22,127.62 612.66,127.62 615.10,127.62 617.55,127.62 619.99,127.62 622.43,127.62 624.87,127.62 627.31,127.62 629.76,127.62 632.20,127.62 634.64,127.62 637.08,127.62 639.52,127.62 641.97,127.62 644.41,127.62 646.85,127.62 649.29,127.62 651.73,127.62 654.18,127.62 656.62,127.62 659.06,127.62 661.50,127.62 663.94,127.62 666.39,127.62 668.83,127.62 671.27,127.62 673.71,127.62 676.15,127.62 678.60,127.62 681.04,127.62 683.48,127.62 685.92,127.62 688.36,127.62 690.81,127.62 693.25,127.62 695.69,127.62 698.13,127.62 700.57,127.62 703.02,127.62 705.46,127.62 707.90,127.62 710.34,127.62 712.78,127.62 715.23,127.62 717.67,127.62 720.11,127.62 722.55,127.62 724.99,127.62 727.44,127.62 729.88,127.62 732.32,127.62 734.76,127.62 737.20,127.62 739.65,127.62 742.09,127.62 744.53,127.62 746.97,127.62 749.41,127.62 751.86,127.62 754.30,127.62 756.74,127.62 759.18,127.62 761.62,127.62 764.07,127.62 766.51,127.62 768.95,127.62 771.39,127.62 773.83,127.62 776.28,127.62 778.72,127.62 781.16,127.62 783.60,127.62 786.04,127.62 788.49,127.62 790.93,127.62 793.37,127.62 795.81,127.62 798.25,127.62 800.70,127.62 803.14,127.62 805.58,127.62 808.02,127.62 810.46,127.62 812.91,127.62 815.35,127.62 817.79,127.62 820.23,127.62 822.67,127.62 825.12,127.62 827.56,127.62 830.00,127.62" fill="none" stroke="#67767a" stroke-opacity="0.28" stroke-width="1.3"><title>Q(F, B)</title></polyline>
<polyline points="90.00,279.95 90.07,279.95 92.52,280.35 94.96,253.26 97.40,231.52 99.84,214.13 102.28,214.13 104.73,189.09 107.17,167.36 109.61,167.36 112.05,162.80 114.49,153.90 116.94,150.54 119.38,148.39 121.82,147.62 124.26,147.01 126.70,146.52 129.15,146.13 131.59,146.13 134.03,145.37 136.47,145.21 138.91,145.21 141.36,144.97 143.80,144.83 146.24,144.73 148.68,144.73 151.12,144.73 153.57,144.73 156.01,144.67 158.45,144.67 160.89,144.65 163.33,144.65 165.78,144.63 168.22,144.62 170.66,144.62 173.10,144.61 175.54,144.60 177.99,144.60 180.43,144.59 182.87,144.58 185.31,144.57 187.75,144.57 190.20,144.57 192.64,144.57 195.08,144.57 197.52,144.57 199.96,144.57 202.41,144.56 204.85,144.56 207.29,144.56 209.73,144.56 212.17,144.56 214.62,144.56 217.06,144.56 219.50,144.56 221.94,144.56 224.38,144.56 226.83,144.56 229.27,144.56 231.71,144.56 234.15,144.56 236.59,144.56 239.04,144.56 241.48,144.56 243.92,144.56 246.36,144.56 248.80,144.56 251.25,144.56 253.69,144.56 256.13,144.56 258.57,144.56 261.01,144.56 263.46,144.56 265.90,144.56 268.34,144.56 270.78,144.56 273.22,144.56 275.67,144.56 278.11,144.56 280.55,144.56 282.99,144.56 285.43,144.56 287.88,144.56 290.32,144.56 292.76,144.56 295.20,144.56 297.64,144.56 300.09,144.56 302.53,144.56 304.97,144.56 307.41,144.56 309.85,144.56 312.30,144.56 314.74,144.56 317.18,144.56 319.62,144.56 322.06,144.56 324.51,144.56 326.95,144.56 329.39,144.56 331.83,144.56 334.27,144.56 336.72,144.56 339.16,144.56 341.60,144.56 344.04,144.56 346.48,144.56 348.93,144.56 351.37,144.56 353.81,144.56 356.25,144.56 358.69,144.56 361.14,144.56 363.58,144.56 366.02,144.56 368.46,144.56 370.90,144.56 373.35,144.56 375.79,144.56 378.23,144.56 380.67,144.56 383.11,144.56 385.56,144.56 388.00,144.56 390.44,144.56 392.88,144.56 395.32,144.56 397.77,144.56 400.21,144.56 402.65,144.56 405.09,144.56 407.53,144.56 409.98,144.56 412.42,144.56 414.86,144.56 417.30,144.56 419.74,144.56 422.19,144.56 424.63,144.56 427.07,144.56 429.51,144.56 431.95,144.56 434.40,144.56 436.84,144.56 439.28,144.56 441.72,144.56 444.16,144.56 446.61,144.56 449.05,144.56 451.49,144.56 453.93,144.56 456.37,144.56 458.82,144.56 461.26,144.56 463.70,144.56 466.14,144.56 468.58,144.56 471.03,144.56 473.47,144.56 475.91,144.56 478.35,144.56 480.79,144.56 483.24,144.56 485.68,144.56 488.12,144.56 490.56,144.56 493.00,144.56 495.45,144.56 497.89,144.56 500.33,144.56 502.77,144.56 505.21,144.56 507.66,144.56 510.10,144.56 512.54,144.56 514.98,144.56 517.42,144.56 519.87,144.56 522.31,144.56 524.75,144.56 527.19,144.56 529.63,144.56 532.08,144.56 534.52,144.56 536.96,144.56 539.40,144.56 541.84,144.56 544.29,144.56 546.73,144.56 549.17,144.56 551.61,144.56 554.05,144.56 556.50,144.56 558.94,144.56 561.38,144.56 563.82,144.56 566.26,144.56 568.71,144.56 571.15,144.56 573.59,144.56 576.03,144.56 578.47,144.56 580.92,144.56 583.36,144.56 585.80,144.56 588.24,144.56 590.68,144.56 593.13,144.56 595.57,144.56 598.01,144.56 600.45,144.56 602.89,144.56 605.34,144.56 607.78,144.56 610.22,144.56 612.66,144.56 615.10,144.56 617.55,144.56 619.99,144.56 622.43,144.56 624.87,144.56 627.31,144.56 629.76,144.56 632.20,144.56 634.64,144.56 637.08,144.56 639.52,144.56 641.97,144.56 644.41,144.56 646.85,144.56 649.29,144.56 651.73,144.56 654.18,144.56 656.62,144.56 659.06,144.56 661.50,144.56 663.94,144.56 666.39,144.56 668.83,144.56 671.27,144.56 673.71,144.56 676.15,144.56 678.60,144.56 681.04,144.56 683.48,144.56 685.92,144.56 688.36,144.56 690.81,144.56 693.25,144.56 695.69,144.56 698.13,144.56 700.57,144.56 703.02,144.56 705.46,144.56 707.90,144.56 710.34,144.56 712.78,144.56 715.23,144.56 717.67,144.56 720.11,144.56 722.55,144.56 724.99,144.56 727.44,144.56 729.88,144.56 732.32,144.56 734.76,144.56 737.20,144.56 739.65,144.56 742.09,144.56 744.53,144.56 746.97,144.56 749.41,144.56 751.86,144.56 754.30,144.56 756.74,144.56 759.18,144.56 761.62,144.56 764.07,144.56 766.51,144.56 768.95,144.56 771.39,144.56 773.83,144.56 776.28,144.56 778.72,144.56 781.16,144.56 783.60,144.56 786.04,144.56 788.49,144.56 790.93,144.56 793.37,144.56 795.81,144.56 798.25,144.56 800.70,144.56 803.14,144.56 805.58,144.56 808.02,144.56 810.46,144.56 812.91,144.56 815.35,144.56 817.79,144.56 820.23,144.56 822.67,144.56 825.12,144.56 827.56,144.56 830.00,144.56" fill="none" stroke="#67767a" stroke-opacity="0.28" stroke-width="1.3"><title>Q(F, E)</title></polyline>
<polyline points="90.00,279.95 90.07,280.56 92.52,149.37 94.96,144.59 97.40,144.56 99.84,144.56 102.28,144.56 104.73,144.56 107.17,144.56 109.61,144.56 112.05,144.56 114.49,144.56 116.94,144.56 119.38,144.56 121.82,144.56 124.26,144.56 126.70,144.56 129.15,144.56 131.59,144.56 134.03,144.56 136.47,144.56 138.91,144.56 141.36,144.56 143.80,144.56 146.24,144.56 148.68,144.56 151.12,144.56 153.57,144.56 156.01,144.56 158.45,144.56 160.89,144.56 163.33,144.56 165.78,144.56 168.22,144.56 170.66,144.56 173.10,144.56 175.54,144.56 177.99,144.56 180.43,144.56 182.87,144.56 185.31,144.56 187.75,144.56 190.20,144.56 192.64,144.56 195.08,144.56 197.52,144.56 199.96,144.56 202.41,144.56 204.85,144.56 207.29,144.56 209.73,144.56 212.17,144.56 214.62,144.56 217.06,144.56 219.50,144.56 221.94,144.56 224.38,144.56 226.83,144.56 229.27,144.56 231.71,144.56 234.15,144.56 236.59,144.56 239.04,144.56 241.48,144.56 243.92,144.56 246.36,144.56 248.80,144.56 251.25,144.56 253.69,144.56 256.13,144.56 258.57,144.56 261.01,144.56 263.46,144.56 265.90,144.56 268.34,144.56 270.78,144.56 273.22,144.56 275.67,144.56 278.11,144.56 280.55,144.56 282.99,144.56 285.43,144.56 287.88,144.56 290.32,144.56 292.76,144.56 295.20,144.56 297.64,144.56 300.09,144.56 302.53,144.56 304.97,144.56 307.41,144.56 309.85,144.56 312.30,144.56 314.74,144.56 317.18,144.56 319.62,144.56 322.06,144.56 324.51,144.56 326.95,144.56 329.39,144.56 331.83,144.56 334.27,144.56 336.72,144.56 339.16,144.56 341.60,144.56 344.04,144.56 346.48,144.56 348.93,144.56 351.37,144.56 353.81,144.56 356.25,144.56 358.69,144.56 361.14,144.56 363.58,144.56 366.02,144.56 368.46,144.56 370.90,144.56 373.35,144.56 375.79,144.56 378.23,144.56 380.67,144.56 383.11,144.56 385.56,144.56 388.00,144.56 390.44,144.56 392.88,144.56 395.32,144.56 397.77,144.56 400.21,144.56 402.65,144.56 405.09,144.56 407.53,144.56 409.98,144.56 412.42,144.56 414.86,144.56 417.30,144.56 419.74,144.56 422.19,144.56 424.63,144.56 427.07,144.56 429.51,144.56 431.95,144.56 434.40,144.56 436.84,144.56 439.28,144.56 441.72,144.56 444.16,144.56 446.61,144.56 449.05,144.56 451.49,144.56 453.93,144.56 456.37,144.56 458.82,144.56 461.26,144.56 463.70,144.56 466.14,144.56 468.58,144.56 471.03,144.56 473.47,144.56 475.91,144.56 478.35,144.56 480.79,144.56 483.24,144.56 485.68,144.56 488.12,144.56 490.56,144.56 493.00,144.56 495.45,144.56 497.89,144.56 500.33,144.56 502.77,144.56 505.21,144.56 507.66,144.56 510.10,144.56 512.54,144.56 514.98,144.56 517.42,144.56 519.87,144.56 522.31,144.56 524.75,144.56 527.19,144.56 529.63,144.56 532.08,144.56 534.52,144.56 536.96,144.56 539.40,144.56 541.84,144.56 544.29,144.56 546.73,144.56 549.17,144.56 551.61,144.56 554.05,144.56 556.50,144.56 558.94,144.56 561.38,144.56 563.82,144.56 566.26,144.56 568.71,144.56 571.15,144.56 573.59,144.56 576.03,144.56 578.47,144.56 580.92,144.56 583.36,144.56 585.80,144.56 588.24,144.56 590.68,144.56 593.13,144.56 595.57,144.56 598.01,144.56 600.45,144.56 602.89,144.56 605.34,144.56 607.78,144.56 610.22,144.56 612.66,144.56 615.10,144.56 617.55,144.56 619.99,144.56 622.43,144.56 624.87,144.56 627.31,144.56 629.76,144.56 632.20,144.56 634.64,144.56 637.08,144.56 639.52,144.56 641.97,144.56 644.41,144.56 646.85,144.56 649.29,144.56 651.73,144.56 654.18,144.56 656.62,144.56 659.06,144.56 661.50,144.56 663.94,144.56 666.39,144.56 668.83,144.56 671.27,144.56 673.71,144.56 676.15,144.56 678.60,144.56 681.04,144.56 683.48,144.56 685.92,144.56 688.36,144.56 690.81,144.56 693.25,144.56 695.69,144.56 698.13,144.56 700.57,144.56 703.02,144.56 705.46,144.56 707.90,144.56 710.34,144.56 712.78,144.56 715.23,144.56 717.67,144.56 720.11,144.56 722.55,144.56 724.99,144.56 727.44,144.56 729.88,144.56 732.32,144.56 734.76,144.56 737.20,144.56 739.65,144.56 742.09,144.56 744.53,144.56 746.97,144.56 749.41,144.56 751.86,144.56 754.30,144.56 756.74,144.56 759.18,144.56 761.62,144.56 764.07,144.56 766.51,144.56 768.95,144.56 771.39,144.56 773.83,144.56 776.28,144.56 778.72,144.56 781.16,144.56 783.60,144.56 786.04,144.56 788.49,144.56 790.93,144.56 793.37,144.56 795.81,144.56 798.25,144.56 800.70,144.56 803.14,144.56 805.58,144.56 808.02,144.56 810.46,144.56 812.91,144.56 815.35,144.56 817.79,144.56 820.23,144.56 822.67,144.56 825.12,144.56 827.56,144.56 830.00,144.56" fill="none" stroke="#007f73" stroke-width="2.5"/>
<line x1="95" y1="327" x2="117" y2="327" stroke="#007f73" stroke-width="3"/>
<text x="123" y="331" font-size="13">Q(A, E)</text>
<line x1="240" y1="327" x2="262" y2="327" stroke="#67767a" stroke-opacity="0.45" stroke-width="2"/>
<text x="268" y="331" font-size="13">Other legal actions</text>
<polyline points="90.07,403.62 92.52,517.47 94.96,505.11 97.40,520.00 99.84,520.00 102.28,520.00 104.73,519.73 107.17,485.57 109.61,520.00 112.05,519.58 114.49,520.00 116.94,520.00 119.38,520.00 121.82,520.00 124.26,520.00 126.70,520.00 129.15,520.00 131.59,520.00 134.03,520.00 136.47,520.00 138.91,520.00 141.36,520.00 143.80,520.00 146.24,520.00 148.68,520.00 151.12,520.00 153.57,520.00 156.01,520.00 158.45,520.00 160.89,519.93 163.33,520.00 165.78,520.00 168.22,520.00 170.66,520.00 173.10,520.00 175.54,520.00 177.99,520.00 180.43,520.00 182.87,519.99 185.31,520.00 187.75,520.00 190.20,520.00 192.64,520.00 195.08,520.00 197.52,520.00 199.96,520.00 202.41,520.00 204.85,520.00 207.29,520.00 209.73,520.00 212.17,520.00 214.62,520.00 217.06,520.00 219.50,520.00 221.94,520.00 224.38,520.00 226.83,520.00 229.27,520.00 231.71,520.00 234.15,520.00 236.59,520.00 239.04,520.00 241.48,520.00 243.92,520.00 246.36,520.00 248.80,520.00 251.25,520.00 253.69,520.00 256.13,520.00 258.57,520.00 261.01,520.00 263.46,520.00 265.90,520.00 268.34,520.00 270.78,520.00 273.22,520.00 275.67,520.00 278.11,520.00 280.55,520.00 282.99,520.00 285.43,520.00 287.88,520.00 290.32,520.00 292.76,520.00 295.20,520.00 297.64,520.00 300.09,520.00 302.53,520.00 304.97,520.00 307.41,520.00 309.85,520.00 312.30,520.00 314.74,520.00 317.18,520.00 319.62,520.00 322.06,520.00 324.51,520.00 326.95,520.00 329.39,520.00 331.83,520.00 334.27,520.00 336.72,520.00 339.16,520.00 341.60,520.00 344.04,520.00 346.48,520.00 348.93,520.00 351.37,520.00 353.81,520.00 356.25,520.00 358.69,520.00 361.14,520.00 363.58,520.00 366.02,520.00 368.46,520.00 370.90,520.00 373.35,520.00 375.79,520.00 378.23,520.00 380.67,520.00 383.11,520.00 385.56,520.00 388.00,520.00 390.44,520.00 392.88,520.00 395.32,520.00 397.77,520.00 400.21,520.00 402.65,520.00 405.09,520.00 407.53,520.00 409.98,520.00 412.42,520.00 414.86,520.00 417.30,520.00 419.74,520.00 422.19,520.00 424.63,520.00 427.07,520.00 429.51,520.00 431.95,520.00 434.40,520.00 436.84,520.00 439.28,520.00 441.72,520.00 444.16,520.00 446.61,520.00 449.05,520.00 451.49,520.00 453.93,520.00 456.37,520.00 458.82,520.00 461.26,520.00 463.70,520.00 466.14,520.00 468.58,520.00 471.03,520.00 473.47,520.00 475.91,520.00 478.35,520.00 480.79,520.00 483.24,520.00 485.68,520.00 488.12,520.00 490.56,520.00 493.00,520.00 495.45,520.00 497.89,520.00 500.33,520.00 502.77,520.00 505.21,520.00 507.66,520.00 510.10,520.00 512.54,520.00 514.98,520.00 517.42,520.00 519.87,520.00 522.31,520.00 524.75,520.00 527.19,520.00 529.63,520.00 532.08,520.00 534.52,520.00 536.96,520.00 539.40,520.00 541.84,520.00 544.29,520.00 546.73,520.00 549.17,520.00 551.61,520.00 554.05,520.00 556.50,520.00 558.94,520.00 561.38,520.00 563.82,520.00 566.26,520.00 568.71,520.00 571.15,520.00 573.59,520.00 576.03,520.00 578.47,520.00 580.92,520.00 583.36,520.00 585.80,520.00 588.24,520.00 590.68,520.00 593.13,520.00 595.57,520.00 598.01,520.00 600.45,520.00 602.89,520.00 605.34,520.00 607.78,520.00 610.22,520.00 612.66,520.00 615.10,520.00 617.55,520.00 619.99,520.00 622.43,520.00 624.87,520.00 627.31,520.00 629.76,520.00 632.20,520.00 634.64,520.00 637.08,520.00 639.52,520.00 641.97,520.00 644.41,520.00 646.85,520.00 649.29,520.00 651.73,520.00 654.18,520.00 656.62,520.00 659.06,520.00 661.50,520.00 663.94,520.00 666.39,520.00 668.83,520.00 671.27,520.00 673.71,520.00 676.15,520.00 678.60,520.00 681.04,520.00 683.48,520.00 685.92,520.00 688.36,520.00 690.81,520.00 693.25,520.00 695.69,520.00 698.13,520.00 700.57,520.00 703.02,520.00 705.46,520.00 707.90,520.00 710.34,520.00 712.78,520.00 715.23,520.00 717.67,520.00 720.11,520.00 722.55,520.00 724.99,520.00 727.44,520.00 729.88,520.00 732.32,520.00 734.76,520.00 737.20,520.00 739.65,520.00 742.09,520.00 744.53,520.00 746.97,520.00 749.41,520.00 751.86,520.00 754.30,520.00 756.74,520.00 759.18,520.00 761.62,520.00 764.07,520.00 766.51,520.00 768.95,520.00 771.39,520.00 773.83,520.00 776.28,520.00 778.72,520.00 781.16,520.00 783.60,520.00 786.04,520.00 788.49,520.00 790.93,520.00 793.37,520.00 795.81,520.00 798.25,520.00 800.70,520.00 803.14,520.00 805.58,520.00 808.02,520.00 810.46,520.00 812.91,520.00 815.35,520.00 817.79,520.00 820.23,520.00 822.67,520.00 825.12,520.00 827.56,520.00 830.00,520.00" fill="none" stroke="#3f65a4" stroke-width="1.6"/>
<text x="460" y="573" text-anchor="middle" font-size="14">Episode</text>
</g></svg>
